HIERARCHY
ROOT hip
{
	OFFSET 0.000000 0.000000 0.000000 
	CHANNELS 6 Xposition Yposition Zposition Xrotation Zrotation Yrotation
	JOINT abdomen
	{
		OFFSET 0.000000 3.402643 0.000000 
		CHANNELS 3 Xrotation Zrotation Yrotation
		JOINT chest
		{
			OFFSET 0.000000 8.438565 -0.680529 
			CHANNELS 3 Xrotation Zrotation Yrotation
			JOINT neck
			{
				OFFSET 0.000000 10.207942 -0.272212 
				CHANNELS 3 Xrotation Zrotation Yrotation
				JOINT head
				{
					OFFSET 0.000000 3.130431 0.000000 
					CHANNELS 3 Xrotation Zrotation Yrotation
					End Site
					{
						OFFSET 0.000000 3.130435 0.000000 
					}
				}
			}
			JOINT lCollar
			{
				OFFSET 3.470700 6.669187 -0.816635 
				CHANNELS 3 Yrotation Zrotation Xrotation
				JOINT lShldr
				{
					OFFSET 3.198488 0.000000 0.000000 
					CHANNELS 3 Zrotation Yrotation Xrotation
					JOINT lForeArm
					{
						OFFSET 10.139888 0.000000 0.000000 
						CHANNELS 3 Yrotation Zrotation Xrotation
						JOINT lHand
						{
							OFFSET 8.370511 0.000000 0.000000 
							CHANNELS 3 Zrotation Yrotation Xrotation
							End Site
							{
								OFFSET 4.083176 0.000000 0.000000 
							}
						}
					}
				}
			}
			JOINT rCollar
			{
				OFFSET -3.470700 6.669187 -0.816635 
				CHANNELS 3 Yrotation Zrotation Xrotation
				JOINT rShldr
				{
					OFFSET -3.198488 0.000000 0.000000 
					CHANNELS 3 Zrotation Yrotation Xrotation
					JOINT rForeArm
					{
						OFFSET -10.139888 0.000000 0.000000 
						CHANNELS 3 Yrotation Zrotation Xrotation
						JOINT rHand
						{
							OFFSET -8.370511 0.000000 0.000000 
							CHANNELS 3 Zrotation Yrotation Xrotation
							End Site
							{
								OFFSET -4.083176 0.000000 0.000000 
							}
						}
					}
				}
			}
		}
	}
	JOINT lThigh
	{
		OFFSET 5.308129 -1.633274 1.361059 
		CHANNELS 3 Xrotation Zrotation Yrotation
		JOINT lShin
		{
			OFFSET -2.041588 -20.007561 0.000000 
			CHANNELS 3 Xrotation Zrotation Yrotation
			JOINT lFoot
			{
				OFFSET 0.000000 -19.190928 -1.224953 
				CHANNELS 3 Xrotation Yrotation Zrotation
				End Site
				{
					OFFSET 0.000000 -2.449906 4.627600 
				}
			}
		}
	}
	JOINT rThigh
	{
		OFFSET -5.308129 -1.633274 1.361059 
		CHANNELS 3 Xrotation Zrotation Yrotation
		JOINT rShin
		{
			OFFSET 2.041588 -20.007561 0.000000 
			CHANNELS 3 Xrotation Zrotation Yrotation
			JOINT rFoot
			{
				OFFSET 0.000000 -19.190928 -1.224953 
				CHANNELS 3 Xrotation Yrotation Zrotation
				End Site
				{
					OFFSET 0.000000 -2.449906 4.627600 
				}
			}
		}
	}
}
MOTION
Frames: 19
Frame Time: 0.033333
11.113769 52.141430 -64.340302 1.202463 -2.655666 -44.157677 0.000000 0.000000 0.000000 21.298014 6.765069 -5.388133 -8.603516 0.000000 0.000000 13.634341 1.410563 -24.875637 -2.957607 -0.090307 -0.002318 -85.397606 -14.594967 -19.084146 -15.610597 -14.496473 9.070895 61.623249 -26.972143 -12.532733 2.957607 0.090307 -0.002334 70.640877 14.193748 -16.451880 24.507086 13.774892 18.302048 -54.813850 28.662718 3.377830 -4.834426 26.044405 15.481604 25.158249 -6.133536 1.676480 -15.557533 4.228238 -10.868295 -14.051902 -26.783054 -12.053542 17.906853 13.708770 2.259700 -2.858675 9.546077 11.363574 
11.107084 52.137466 -64.345627 1.251354 -2.665381 -44.169918 0.000000 0.000000 0.000000 21.297594 6.755972 -5.411186 -8.603516 0.000000 0.000000 13.663690 1.429954 -24.785305 -2.957607 -0.090307 -0.002318 -85.491074 -14.668099 -19.064476 -15.599465 -14.473207 9.011992 61.310455 -26.949091 -12.362839 2.957607 0.090307 -0.002334 70.622269 14.173217 -16.441931 24.513855 13.748117 18.291460 -54.714031 28.730057 3.362322 -4.873137 26.131830 15.526953 25.197803 -6.133786 1.653261 -15.564845 4.219875 -10.906274 -14.079307 -26.729200 -12.109739 17.940121 13.697376 2.274519 -2.878613 9.570871 11.344491 
11.088162 52.140297 -64.360809 1.329563 -2.665299 -44.173553 0.000000 0.000000 0.000000 21.297174 6.746873 -5.424475 -8.603516 0.000000 0.000000 13.663799 1.478592 -24.683336 -2.957607 -0.090307 -0.002318 -85.544182 -14.768558 -19.056694 -15.556379 -14.432731 8.976809 61.077579 -26.948847 -12.210926 2.957607 0.090307 -0.002334 70.555267 14.140415 -16.411716 24.545364 13.756710 18.232056 -54.592747 28.779596 3.336856 -4.942316 26.271393 15.588356 25.254745 -6.143020 1.606821 -15.562307 4.166673 -10.945821 -14.109211 -26.643242 -12.139373 17.996208 13.704912 2.302267 -2.929893 9.583487 11.283774 
11.054058 52.137466 -64.383583 1.427337 -2.674952 -44.168568 0.000000 0.000000 0.000000 21.295919 6.719576 -5.483871 -8.603516 0.000000 0.000000 13.683496 1.546638 -24.510752 -2.957607 -0.090307 -0.002318 -85.642868 -14.940037 -19.077908 -15.513878 -14.387081 8.873236 60.496250 -26.958042 -11.918726 2.957607 0.090307 -0.002334 70.469810 14.077184 -16.349705 24.582516 13.729581 18.165836 -54.353382 28.907846 3.378566 -5.058936 26.488792 15.663359 25.350920 -6.152400 1.528485 -15.586660 4.104185 -11.012532 -14.149853 -26.521477 -12.238820 18.082945 13.704308 2.345488 -3.019129 9.609013 11.220984 
11.011344 52.137466 -64.409195 1.544652 -2.674810 -44.134979 0.000000 0.000000 0.000000 21.295084 6.701379 -5.539745 -8.603516 0.000000 0.000000 13.673919 1.624481 -24.367388 -2.957607 -0.090307 -0.002318 -85.732155 -15.101181 -19.089420 -15.460184 -14.331478 8.793674 60.085884 -26.933445 -11.681701 2.957607 0.090307 -0.002334 70.365425 14.013220 -16.319042 24.632856 13.726847 18.105576 -54.126869 28.976145 3.342398 -5.166445 26.703636 15.789016 25.442677 -6.134114 1.435428 -15.629814 4.028391 -11.086750 -14.198174 -26.383247 -12.346437 18.174366 13.697183 2.389735 -3.104475 9.610414 11.136277 
10.968631 52.140297 -64.440468 1.671730 -2.664883 -44.121086 0.000000 0.000000 0.000000 21.275023 6.693166 -5.565075 -8.603516 0.000000 0.000000 13.664375 1.712054 -24.232950 -2.957607 -0.090307 -0.002318 -85.784531 -15.221304 -19.098536 -15.437474 -14.283022 8.707309 59.849724 -26.904139 -11.539186 2.957607 0.090307 -0.002334 70.251015 13.958613 -16.297899 24.681120 13.707487 18.033354 -53.921822 29.062250 3.355286 -5.283799 26.928955 15.883134 25.519058 -6.143373 1.367649 -15.652433 3.917053 -11.158449 -14.266398 -26.236090 -12.431757 18.261110 13.696095 2.430574 -3.172634 9.622862 11.034255 
10.926025 52.140297 -64.466072 1.779268 -2.664732 -44.106548 0.000000 0.000000 0.000000 21.254547 6.675848 -5.584151 -8.603516 0.000000 0.000000 13.674302 1.770392 -24.120050 -2.957607 -0.090307 -0.002318 -85.779991 -15.319146 -19.139462 -15.403376 -14.230999 8.688964 59.754902 -26.833599 -11.506943 2.957607 0.090307 -0.002334 70.135284 13.923374 -16.257092 24.744255 13.725252 17.904800 -53.728588 29.166985 3.456196 -5.391121 27.157930 15.959021 25.617931 -6.143716 1.309639 -15.694244 3.842878 -11.231425 -14.295874 -26.089598 -12.494469 18.326385 13.708466 2.433859 -3.253670 9.605521 10.943653 
10.880477 52.148911 -64.491676 1.896583 -2.664557 -44.072933 0.000000 0.000000 0.000000 21.245138 6.685391 -5.620833 -8.603516 0.000000 0.000000 13.674465 1.828756 -24.017210 -2.957607 -0.090307 -0.002318 -85.766190 -15.416729 -19.207075 -15.347063 -14.152687 8.674603 59.679325 -26.761454 -11.478780 2.957607 0.090307 -0.002334 70.000641 13.887408 -16.242886 24.777115 13.744015 17.819798 -53.552505 29.250641 3.528008 -5.498500 27.357218 16.033092 25.660315 -6.122379 1.232555 -15.687120 3.786360 -11.306170 -14.314969 -25.981262 -12.566297 18.375780 13.757921 2.477878 -3.327691 9.591823 10.872573 
10.832098 52.157406 -64.514442 1.994329 -2.654643 -44.047836 0.000000 0.000000 0.000000 21.235313 6.685833 -5.641502 -8.603516 0.000000 0.000000 13.664834 1.877422 -23.944853 -2.957607 -0.090307 -0.002318 -85.714981 -15.483042 -19.274761 -15.313621 -14.109462 8.663569 59.653950 -26.704725 -11.494236 2.957607 0.090307 -0.002334 69.855797 13.860726 -16.230787 24.830032 13.761011 17.722733 -53.393581 29.313215 3.609774 -5.596126 27.537970 15.999950 25.661442 -6.112877 1.205420 -15.673518 3.771146 -11.347906 -14.326081 -25.867712 -12.621168 18.407381 13.798603 2.497980 -3.374349 9.563993 10.772554 
10.792215 52.163071 -64.531555 2.062745 -2.644772 -44.011589 0.000000 0.000000 0.000000 21.225908 6.695377 -5.668423 -8.603516 0.000000 0.000000 13.655149 1.906633 -23.893761 -2.957607 -0.090307 -0.002318 -85.655754 -15.519677 -19.352394 -15.310698 -14.072227 8.665372 59.620979 -26.668251 -11.504482 2.957607 0.090307 -0.002334 69.768410 13.856468 -16.229301 24.851606 13.770735 17.665604 -53.272243 29.362785 3.730934 -5.664950 27.609724 15.919316 25.584942 -6.093727 1.207222 -15.604794 3.804591 -11.362369 -14.324844 -25.796103 -12.664261 18.401545 13.823585 2.492335 -3.374266 9.538145 10.698845 
10.755279 52.168736 -64.542892 2.121384 -2.634914 -43.994400 0.000000 0.000000 0.000000 21.216915 6.714026 -5.662541 -8.603516 0.000000 0.000000 13.645377 1.906662 -23.864792 -2.957607 -0.090307 -0.002318 -85.576912 -15.545234 -19.390965 -15.278056 -14.045448 8.688670 59.544952 -26.684420 -11.447183 2.957607 0.090307 -0.002334 69.680862 13.862110 -16.247271 24.874422 13.790020 17.592607 -53.198151 29.398527 3.788916 -5.752470 27.690548 15.795974 25.453178 -6.094992 1.199676 -15.502714 3.917951 -11.322517 -14.334322 -25.717428 -12.716394 18.387505 13.842248 2.501133 -3.347970 9.505227 10.660526 
10.726839 52.174515 -64.545723 2.180006 -2.615296 -44.006115 0.000000 0.000000 0.000000 21.217749 6.732234 -5.655520 -8.603516 0.000000 0.000000 13.635606 1.906691 -23.806520 -2.957607 -0.090307 -0.002318 -85.480507 -15.530700 -19.419991 -15.255453 -14.024925 8.746415 59.466885 -26.681143 -11.438697 2.957607 0.090307 -0.002334 69.601082 13.897277 -16.235910 24.886028 13.800934 17.537775 -53.144489 29.442343 3.895887 -5.830502 27.725319 15.653144 25.333420 -6.084661 1.174074 -15.422682 4.079120 -11.246262 -14.334836 -25.650005 -12.710732 18.359079 13.847785 2.477715 -3.358369 9.515347 10.655438 
10.698287 52.177345 -64.542892 2.219092 -2.605469 -44.017284 0.000000 0.000000 0.000000 21.238649 6.758653 -5.662222 -8.603516 0.000000 0.000000 13.625807 1.896991 -23.739342 -2.957607 -0.090307 -0.002318 -85.374527 -15.515743 -19.458733 -15.234013 -14.022098 8.821438 59.369549 -26.679487 -11.401223 2.957607 0.090307 -0.002334 69.550102 13.943685 -16.237104 24.898586 13.819500 17.498640 -53.106903 29.455355 3.949381 -5.879313 27.745329 15.525671 25.185003 -6.064595 1.134842 -15.328543 4.280819 -11.203981 -14.334592 -25.591120 -12.733841 18.327078 13.806775 2.486702 -3.317959 9.500319 10.665607 
10.672794 52.185844 -64.537231 2.267936 -2.585866 -44.048023 0.000000 0.000000 0.000000 21.259140 6.775962 -5.672421 -8.603516 0.000000 0.000000 13.606209 1.877591 -23.634275 -2.957607 -0.090307 -0.002318 -85.277634 -15.500969 -19.458448 -15.193089 -14.022584 8.869310 59.236729 -26.710228 -11.354604 2.957607 0.090307 -0.002334 69.518379 13.990964 -16.226521 24.897444 13.810574 17.502434 -53.067127 29.448927 3.939316 -5.927830 27.782427 15.428636 25.062571 -6.065777 1.106885 -15.243906 4.437586 -11.141970 -14.355034 -25.535324 -12.724498 18.274357 13.794320 2.477336 -3.227573 9.488096 10.618642 
10.650021 52.188679 -64.525780 2.306985 -2.556523 -44.107193 0.000000 0.000000 0.000000 21.278788 6.775066 -5.640821 -8.603516 0.000000 0.000000 13.606265 1.897048 -23.544676 -2.957607 -0.090307 -0.002318 -85.208977 -15.487218 -19.399683 -15.142328 -14.024414 8.909668 59.130764 -26.719107 -11.327024 2.957607 0.090307 -0.002334 69.525337 14.050033 -16.236065 24.829662 13.755879 17.535416 -53.046700 29.440857 3.885375 -5.937952 27.776657 15.357095 24.931295 -6.064472 1.100715 -15.168090 4.599953 -11.065459 -14.392282 -25.461248 -12.692070 18.260887 13.778765 2.481191 -3.061047 9.472370 10.571542 
10.630079 52.191509 -64.508781 2.346051 -2.536937 -44.156967 0.000000 0.000000 0.000000 21.289032 6.783717 -5.626382 -8.603516 0.000000 0.000000 13.635606 1.906691 -23.435427 -2.957607 -0.090307 -0.002318 -85.169777 -15.455072 -19.292345 -15.092139 -14.035091 8.957512 59.034416 -26.727184 -11.332960 2.957607 0.090307 -0.002334 69.579834 14.111035 -16.190243 24.762415 13.704292 17.519548 -53.043423 29.411695 3.846308 -5.928142 27.755260 15.397955 24.823351 -6.044916 1.066271 -15.136127 4.691804 -11.072055 -14.450335 -25.420885 -12.655094 18.238892 13.757687 2.494627 -2.858968 9.466962 10.513434 
10.621468 52.200123 -64.477516 2.394891 -2.517334 -44.216908 0.000000 0.000000 0.000000 21.280052 6.802365 -5.599810 -8.603516 0.000000 0.000000 13.713746 1.896733 -23.336042 -2.957607 -0.090307 -0.002318 -85.151123 -15.394435 -19.155996 -15.032104 -14.047107 8.997862 58.937054 -26.725540 -11.344262 2.957607 0.090307 -0.002334 69.666237 14.134795 -16.191614 24.684866 13.651266 17.544817 -53.036888 29.353380 3.782733 -5.869210 27.742659 15.468442 24.758415 -6.016492 1.048368 -15.155454 4.735985 -11.058999 -14.519886 -25.375841 -12.597958 18.250235 13.724728 2.520481 -2.626242 9.461119 10.409860 
10.621468 52.205788 -64.446129 2.424162 -2.488009 -44.275543 0.000000 0.000000 0.000000 21.271500 6.830117 -5.600173 -8.603516 0.000000 0.000000 13.782055 1.867352 -23.238773 -2.957607 -0.090307 -0.002318 -85.200836 -15.327407 -19.000450 -15.044444 -14.074797 8.988882 58.875153 -26.691496 -11.399380 2.957607 0.090307 -0.002334 69.772697 14.139853 -16.173908 24.629652 13.614335 17.545820 -53.002426 29.307255 3.753209 -5.801429 27.671307 15.548914 24.717236 -5.976789 1.059988 -15.182749 4.737088 -11.091091 -14.608171 -25.347355 -12.496878 18.234667 13.696206 2.495888 -2.397885 9.432912 10.351284 
10.630079 52.217117 -64.406357 2.443675 -2.468459 -44.324379 0.000000 0.000000 0.000000 21.271923 6.839216 -5.596655 -8.603516 0.000000 0.000000 13.850392 1.847700 -23.140675 -2.957607 -0.090307 -0.002318 -85.258904 -15.290227 -18.854492 -15.036904 -14.104566 8.974628 58.827988 -26.705261 -11.400140 2.957607 0.090307 -0.002334 69.918808 14.127227 -16.147219 24.575491 13.585672 17.555046 -52.930374 29.274139 3.713632 -5.703598 27.578247 15.614171 24.647118 -5.937366 1.114170 -15.188944 4.735856 -11.146607 -14.685762 -25.345524 -12.415035 18.248775 13.660006 2.501660 -2.163257 9.426742 10.310836 
